<svg width="23" height="23" viewBox="0 0 23 23" fill="none" xmlns="http://www.w3.org/2000/svg">
<path fill-rule="evenodd" clip-rule="evenodd" d="M7.41715 0.341879C8.59015 0.287879 8.96415 0.275879 11.9521 0.275879C14.9401 0.275879 15.3141 0.288879 16.4861 0.341879C17.6581 0.394879 18.4581 0.581879 19.1581 0.852879C19.8911 1.12988 20.5561 1.56288 21.1061 2.12288C21.6661 2.67188 22.0982 3.33588 22.3741 4.06988C22.6461 4.76988 22.8321 5.56988 22.8861 6.73988C22.9401 7.91488 22.9521 8.28888 22.9521 11.2759C22.9521 14.2639 22.9391 14.6379 22.8861 15.8109C22.8331 16.9809 22.6461 17.7809 22.3741 18.4809C22.0981 19.215 21.6654 19.8801 21.1061 20.4299C20.5561 20.9899 19.8911 21.4219 19.1581 21.6979C18.4581 21.9699 17.6581 22.1559 16.4881 22.2099C15.3141 22.2639 14.9401 22.2759 11.9521 22.2759C8.96415 22.2759 8.59015 22.2629 7.41715 22.2099C6.24715 22.1569 5.44715 21.9699 4.74715 21.6979C4.01307 21.4218 3.34797 20.9891 2.79815 20.4299C2.23853 19.8805 1.80546 19.2158 1.52915 18.4819C1.25815 17.7819 1.07215 16.9819 1.01815 15.8119C0.964148 14.6369 0.952148 14.2629 0.952148 11.2759C0.952148 8.28788 0.965148 7.91388 1.01815 6.74188C1.07115 5.56988 1.25815 4.76988 1.52915 4.06988C1.80587 3.33596 2.23927 2.67119 2.79915 2.12188C3.34819 1.56238 4.01262 1.12932 4.74615 0.852879C5.44615 0.581879 6.24615 0.395879 7.41615 0.341879H7.41715ZM16.3971 2.32188C15.2371 2.26888 14.8891 2.25788 11.9521 2.25788C9.01515 2.25788 8.66715 2.26888 7.50715 2.32188C6.43415 2.37088 5.85215 2.54988 5.46415 2.70088C4.95115 2.90088 4.58415 3.13788 4.19915 3.52288C3.83419 3.87793 3.55333 4.31016 3.37715 4.78788C3.22615 5.17588 3.04715 5.75788 2.99815 6.83088C2.94515 7.99088 2.93415 8.33888 2.93415 11.2759C2.93415 14.2129 2.94515 14.5609 2.99815 15.7209C3.04715 16.7939 3.22615 17.3759 3.37715 17.7639C3.55315 18.2409 3.83415 18.6739 4.19915 19.0289C4.55415 19.3939 4.98715 19.6749 5.46415 19.8509C5.85215 20.0019 6.43415 20.1809 7.50715 20.2299C8.66715 20.2829 9.01415 20.2939 11.9521 20.2939C14.8901 20.2939 15.2371 20.2829 16.3971 20.2299C17.4701 20.1809 18.0521 20.0019 18.4401 19.8509C18.9531 19.6509 19.3201 19.4139 19.7051 19.0289C20.0701 18.6739 20.3511 18.2409 20.5271 17.7639C20.6781 17.3759 20.8571 16.7939 20.9061 15.7209C20.9591 14.5609 20.9701 14.2129 20.9701 11.2759C20.9701 8.33888 20.9591 7.99088 20.9061 6.83088C20.8571 5.75788 20.6781 5.17588 20.5271 4.78788C20.3271 4.27488 20.0901 3.90788 19.7051 3.52288C19.3501 3.15795 18.9179 2.87709 18.4401 2.70088C18.0521 2.54988 17.4701 2.37088 16.3971 2.32188ZM10.5471 14.6669C11.3318 14.9935 12.2055 15.0376 13.0191 14.7916C13.8326 14.5456 14.5355 14.0248 15.0078 13.3181C15.48 12.6114 15.6922 11.7627 15.6082 10.917C15.5242 10.0712 15.1492 9.28085 14.5471 8.68088C14.1634 8.29736 13.6994 8.00369 13.1885 7.82103C12.6776 7.63836 12.1326 7.57124 11.5926 7.62449C11.0527 7.67775 10.5313 7.85006 10.066 8.12901C9.6006 8.40796 9.20289 8.78662 8.90145 9.23773C8.60001 9.68884 8.40234 10.2012 8.32266 10.7378C8.24299 11.2745 8.2833 11.8222 8.44069 12.3414C8.59808 12.8606 8.86863 13.3385 9.23287 13.7406C9.59711 14.1427 10.046 14.4591 10.5471 14.6669ZM7.95415 7.27788C8.47917 6.75285 9.10247 6.33638 9.78845 6.05224C10.4744 5.7681 11.2097 5.62185 11.9521 5.62185C12.6946 5.62185 13.4299 5.7681 14.1159 6.05224C14.8018 6.33638 15.4251 6.75285 15.9501 7.27788C16.4752 7.8029 16.8916 8.4262 17.1758 9.11218C17.4599 9.79815 17.6062 10.5334 17.6062 11.2759C17.6062 12.0184 17.4599 12.7536 17.1758 13.4396C16.8916 14.1256 16.4752 14.7489 15.9501 15.2739C14.8898 16.3342 13.4517 16.9299 11.9521 16.9299C10.4526 16.9299 9.01448 16.3342 7.95415 15.2739C6.89381 14.2135 6.29812 12.7754 6.29812 11.2759C6.29812 9.77634 6.89381 8.33821 7.95415 7.27788ZM18.8601 6.46388C18.9903 6.34115 19.0944 6.19356 19.1665 6.02985C19.2385 5.86615 19.277 5.68965 19.2796 5.51081C19.2822 5.33197 19.2489 5.15443 19.1816 4.98869C19.1144 4.82295 19.0146 4.67239 18.8881 4.54592C18.7616 4.41945 18.6111 4.31964 18.4453 4.2524C18.2796 4.18516 18.1021 4.15185 17.9232 4.15446C17.7444 4.15707 17.5679 4.19553 17.4042 4.26758C17.2405 4.33962 17.0929 4.44377 16.9701 4.57388C16.7315 4.82691 16.6008 5.163 16.6059 5.51081C16.6109 5.85862 16.7513 6.19076 16.9973 6.43672C17.2433 6.68269 17.5754 6.82311 17.9232 6.82818C18.271 6.83325 18.6071 6.70257 18.8601 6.46388Z" fill="white"/>
</svg>
