<svg width="20" height="21" viewBox="0 0 20 21" fill="none" xmlns="http://www.w3.org/2000/svg">
<path fill-rule="evenodd" clip-rule="evenodd" d="M8.02739 7.24488H11.5645V9.09488C12.0741 8.03088 13.3807 7.07488 15.3436 7.07488C19.1064 7.07488 19.9998 9.19288 19.9998 13.0789V20.2759H16.1902V13.9639C16.1902 11.7509 15.6807 10.5029 14.3836 10.5029C12.5845 10.5029 11.8369 11.8479 11.8369 13.9629V20.2759H8.02739V7.24488ZM1.49501 20.1059H5.30453V7.07488H1.49501V20.1059ZM5.85024 2.82588C5.85039 3.16115 5.78706 3.49311 5.66395 3.80247C5.54083 4.11182 5.36039 4.39239 5.1331 4.62788C4.67253 5.1085 4.04911 5.37753 3.39977 5.37588C2.75157 5.37542 2.12959 5.10708 1.66834 4.62888C1.44187 4.39259 1.26204 4.1117 1.13914 3.80231C1.01625 3.49292 0.9527 3.1611 0.952148 2.82588C0.952148 2.14888 1.20929 1.50088 1.66929 1.02288C2.13013 0.544037 2.75238 0.27558 3.40072 0.275879C4.05024 0.275879 4.6731 0.544879 5.1331 1.02288C5.59215 1.50088 5.85024 2.14888 5.85024 2.82588Z" fill="white"/>
</svg>
