<svg width="21" height="23" viewBox="0 0 21 23" fill="none" xmlns="http://www.w3.org/2000/svg">
<path d="M10.4762 0.275879C4.6909 0.275879 0 5.20133 0 11.2759C0 17.3504 4.6909 22.2759 10.4762 22.2759C16.2615 22.2759 20.9524 17.3504 20.9524 11.2759C20.9524 5.20133 16.2615 0.275879 10.4762 0.275879ZM15.5108 8.56762C15.5179 8.68302 15.5179 8.80333 15.5179 8.92119C15.5179 12.5257 12.9035 16.6777 8.12606 16.6777C6.65285 16.6777 5.2872 16.2283 4.13669 15.4549C4.34715 15.4795 4.54826 15.4893 4.76339 15.4893C5.97938 15.4893 7.09715 15.0571 7.9881 14.3254C6.84694 14.3009 5.88818 13.5152 5.5608 12.4348C5.96067 12.4962 6.32079 12.4962 6.73236 12.3857C6.14477 12.2604 5.61663 11.9253 5.23767 11.4374C4.8587 10.9495 4.65229 10.3389 4.65349 9.70936V9.67499C4.99724 9.87878 5.40179 10.004 5.82504 10.0212C5.46923 9.7722 5.17743 9.43488 4.97551 9.03912C4.7736 8.64337 4.66781 8.20141 4.66752 7.75244C4.66752 7.24418 4.79379 6.78012 5.02062 6.37744C5.67282 7.22045 6.48666 7.90993 7.40925 8.40106C8.33184 8.89219 9.34254 9.17398 10.3756 9.22811C10.0085 7.37432 11.3274 5.87409 12.9128 5.87409C13.6611 5.87409 14.3346 6.20311 14.8093 6.73347C15.3963 6.61807 15.9575 6.38726 16.4579 6.07789C16.2638 6.70891 15.8569 7.24173 15.3168 7.57811C15.8406 7.51918 16.3457 7.36695 16.8134 7.15333C16.4602 7.69842 16.0183 8.18213 15.5108 8.56762Z" fill="white"/>
</svg>
